<?xml version="1.0" encoding="UTF-8"?>
<svg width="168px" height="48px" viewBox="0 0 168 48" version="1.1" xmlns="http://www.w3.org/2000/svg" xmlns:xlink="http://www.w3.org/1999/xlink">
    <title>B5CD5061-3A36-40B7-BC04-01E1C8A70489</title>
    <g id="Symbols" stroke="none" stroke-width="1" fill="none" fill-rule="evenodd">
        <g id="SCE-logo-horizontal/SCE-logo_horizontal_keyline">
            <polygon id="Fill-1" fill="#FFFFFE" points="0 48.293 48.303 48.293 48.303 0 0 0"></polygon>
            <polygon id="Fill-3" fill="#FFFFFE" points="1.801 46.775 46.732 46.775 46.732 1.8 1.801 1.8"></polygon>
            <polyline id="Fill-4" fill="#FACB4E" points="1.829 29.358 20.596 30.949 6.836 20.877 22.615 26.633 7.441 7.418 26.651 22.486 20.878 6.835 30.461 20.132 29.608 1.821 35.618 20.187 40.094 1.8 1.801 1.8 1.801 40.093 1.818 40.093 20.372 35.937 1.829 29.358"></polyline>
            <polyline id="Fill-5" fill="#005E49" points="1.801 40.117 40.094 40.117 40.094 1.8 46.732 1.8 46.732 46.798 1.801 46.798 1.801 40.117"></polyline>
            <path d="M166.067,24.916 C167.327,24.916 168.349,23.894 168.349,22.634 C168.349,21.373 167.327,20.351 166.067,20.351 C164.806,20.351 163.785,21.373 163.785,22.634 C163.785,23.894 164.806,24.916 166.067,24.916 Z" id="Stroke-6" stroke="#FFFFFE" stroke-width="0.25"></path>
            <path d="M164.929,23.997 C165.109,23.984 165.296,23.974 165.468,23.974 C165.609,23.974 165.797,23.984 165.977,23.997 L165.977,23.902 L165.88,23.902 C165.701,23.902 165.657,23.861 165.657,23.652 L165.657,22.763 C165.988,22.763 165.997,22.789 166.145,22.98 L166.922,23.997 C167.026,23.984 167.134,23.974 167.243,23.974 C167.354,23.974 167.463,23.984 167.571,23.997 L167.571,23.902 C167.41,23.889 167.331,23.873 167.17,23.665 L166.601,22.924 C166.512,22.812 166.429,22.736 166.365,22.685 C166.843,22.583 167.078,22.27 167.078,21.896 C167.078,21.273 166.605,21.111 166.081,21.111 C165.897,21.111 165.713,21.132 165.468,21.132 C165.296,21.132 165.109,21.123 164.929,21.111 L164.929,21.207 L165.025,21.207 C165.205,21.207 165.248,21.247 165.248,21.456 L165.248,23.652 C165.248,23.861 165.205,23.902 165.025,23.902 L164.929,23.902 L164.929,23.997 Z M165.657,21.349 C165.657,21.261 165.677,21.252 165.805,21.252 C166.553,21.252 166.64,21.619 166.64,21.972 C166.64,22.23 166.533,22.645 165.845,22.645 C165.777,22.645 165.709,22.64 165.657,22.636 L165.657,21.349 L165.657,21.349 Z" id="Fill-8" fill="#FFFFFE"></path>
            <polyline id="Fill-9" fill="#FFFFFE" points="57.195 40.412 57.195 20.301 69.081 20.301 69.081 21.604 60.981 21.604 60.981 29.363 68.616 29.363 68.616 30.666 60.981 30.666 60.981 39.108 69.205 39.108 69.205 40.412 57.195 40.412"></polyline>
            <path d="M77.971,39.108 L80.329,39.108 C86.381,39.108 87.654,34.732 87.654,30.791 C87.654,25.732 85.295,21.604 80.516,21.604 L77.971,21.604 L77.971,39.108 Z M74.185,20.301 L80.733,20.301 C87.996,20.301 91.44,25.453 91.44,30.729 C91.44,37.153 87.313,40.412 81.447,40.412 L74.185,40.412 L74.185,20.301 L74.185,20.301 Z" id="Fill-10" fill="#FFFFFE"></path>
            <polygon id="Fill-11" fill="#FFFFFE" points="96.137 40.411 99.924 40.411 99.924 20.301 96.137 20.301"></polygon>
            <path d="M106.913,36.811 C107.968,38.488 109.085,39.386 111.072,39.386 C112.809,39.386 114.671,37.991 114.671,35.912 C114.671,30.077 105.237,32.838 105.237,25.639 C105.237,22.411 107.937,19.742 111.692,19.742 C114.175,19.742 116.688,21.108 117.745,23.342 L116.44,24.181 C115.664,22.566 114.454,21.325 112.313,21.325 C110.234,21.325 109.024,22.908 109.024,24.832 C109.024,29.549 118.457,27.562 118.457,34.825 C118.457,38.518 115.23,40.97 111.847,40.97 C109.116,40.97 106.913,40.164 105.516,37.835 L106.913,36.811" id="Fill-12" fill="#FFFFFE"></path>
            <path d="M131.806,39.667 C136.648,39.667 137.734,34.266 137.734,30.356 C137.734,26.446 136.648,21.046 131.806,21.046 C126.965,21.046 125.911,26.446 125.911,30.356 C125.911,34.266 126.965,39.667 131.806,39.667 Z M131.806,19.742 C137.641,19.742 141.799,24.429 141.799,30.356 C141.799,36.284 137.641,40.97 131.806,40.97 C126.002,40.97 121.844,36.284 121.844,30.356 C121.844,24.429 126.002,19.742 131.806,19.742 L131.806,19.742 Z" id="Fill-13" fill="#FFFFFE"></path>
            <polyline id="Fill-14" fill="#FFFFFE" points="146.093 40.412 146.093 20.301 149.476 20.301 159.997 34.142 160.058 34.142 160.058 20.301 161.672 20.301 161.672 40.412 159.997 40.412 147.769 24.367 147.706 24.367 147.706 40.412 146.093 40.412"></polyline>
            <path d="M57.641,14.336 C57.986,14.884 58.351,15.178 59,15.178 C59.568,15.178 60.176,14.722 60.176,14.042 C60.176,12.136 57.093,13.038 57.093,10.686 C57.093,9.631 57.976,8.759 59.203,8.759 C60.014,8.759 60.835,9.205 61.18,9.935 L60.754,10.209 C60.5,9.682 60.105,9.277 59.406,9.277 C58.726,9.277 58.331,9.793 58.331,10.422 C58.331,11.963 61.414,11.314 61.414,13.687 C61.414,14.894 60.359,15.695 59.253,15.695 C58.361,15.695 57.641,15.432 57.185,14.671 L57.641,14.336" id="Fill-15" fill="#FFFFFE"></path>
            <path d="M65.489,15.27 C67.072,15.27 67.426,13.504 67.426,12.227 C67.426,10.949 67.072,9.186 65.489,9.186 C63.908,9.186 63.563,10.949 63.563,12.227 C63.563,13.504 63.908,15.27 65.489,15.27 Z M65.489,8.759 C67.396,8.759 68.754,10.291 68.754,12.227 C68.754,14.164 67.396,15.695 65.489,15.695 C63.593,15.695 62.235,14.164 62.235,12.227 C62.235,10.291 63.593,8.759 65.489,8.759 L65.489,8.759 Z" id="Fill-16" fill="#FFFFFE"></path>
            <path d="M71.127,8.942 L71.127,13.636 C71.127,14.651 72.02,15.026 72.527,15.026 C73.105,15.026 74.11,14.823 74.11,13.697 L74.11,8.942 L74.637,8.942 L74.637,13.85 C74.637,14.692 73.997,15.695 72.334,15.695 C71.249,15.695 69.891,15.279 69.891,13.606 L69.891,8.942 L71.127,8.942" id="Fill-17" fill="#FFFFFE"></path>
            <polyline id="Fill-18" fill="#FFFFFE" points="77.009 15.512 77.009 9.368 75.702 9.368 75.702 8.942 79.555 8.942 79.555 9.368 78.246 9.368 78.246 15.512 77.009 15.512"></polyline>
            <polyline id="Fill-19" fill="#FFFFFE" points="80.6 15.512 80.6 8.942 81.837 8.942 81.837 11.831 84.535 11.831 84.535 8.942 85.772 8.942 85.772 15.512 84.535 15.512 84.535 12.349 81.837 12.349 81.837 15.512 80.6 15.512"></polyline>
            <polyline id="Fill-20" fill="#FFFFFE" points="87.426 15.512 87.426 8.942 91.31 8.942 91.31 9.368 88.663 9.368 88.663 11.902 91.159 11.902 91.159 12.329 88.663 12.329 88.663 15.087 91.351 15.087 91.351 15.512 87.426 15.512"></polyline>
            <path d="M92.651,15.512 L92.651,8.942 L95.49,8.942 C96.686,8.942 97.356,9.824 97.356,10.878 C97.356,11.882 96.625,12.319 95.642,12.44 L97.386,15.512 L96.027,15.512 L94.233,12.145 L94.314,12.145 C95.409,12.145 96.119,11.72 96.119,10.736 C96.119,10.006 95.764,9.267 94.557,9.267 L93.888,9.267 L93.888,15.512 L92.651,15.512" id="Fill-21" fill="#FFFFFE"></path>
            <polyline id="Fill-22" fill="#FFFFFE" points="98.533 15.512 98.533 8.942 99.638 8.942 103.077 13.464 103.096 13.464 103.096 8.942 103.623 8.942 103.623 15.512 103.077 15.512 99.08 10.27 99.06 10.27 99.06 15.512 98.533 15.512"></polyline>
            <path d="M114.233,10.381 C113.756,9.763 113.208,9.186 112.337,9.186 C110.735,9.186 109.923,10.361 109.923,12.258 C109.923,13.738 110.674,15.178 112.185,15.178 C113.159,15.178 113.99,14.6 114.366,13.738 L114.801,13.951 C114.203,15.188 113.2,15.695 111.942,15.695 C110.085,15.695 108.595,14.143 108.595,12.309 C108.595,10.209 110.136,8.759 112.063,8.759 C113.098,8.759 114.031,9.307 114.598,10.118 L114.233,10.381" id="Fill-23" fill="#FFFFFE"></path>
            <path d="M117.309,10.959 L116.356,13.373 L118.273,13.373 L117.309,10.959 Z M120.413,15.512 L119.145,15.512 L118.445,13.798 L116.184,13.798 L115.525,15.512 L114.947,15.512 L117.623,8.759 L117.644,8.759 L120.413,15.512 L120.413,15.512 Z" id="Fill-24" fill="#FFFFFE"></path>
            <polyline id="Fill-25" fill="#FFFFFE" points="121.336 15.512 121.336 8.942 122.573 8.942 122.573 14.996 125.21 14.996 125.21 15.512 121.336 15.512"></polyline>
            <polygon id="Fill-26" fill="#FFFFFE" points="126.194 15.512 127.431 15.512 127.431 8.942 126.194 8.942"></polygon>
            <polyline id="Fill-27" fill="#FFFFFE" points="129.214 15.512 129.214 8.942 132.987 8.942 132.987 9.368 130.452 9.368 130.452 11.902 132.764 11.902 132.764 12.329 130.452 12.329 130.452 15.512 129.214 15.512"></polyline>
            <path d="M136.79,15.27 C138.372,15.27 138.727,13.504 138.727,12.227 C138.727,10.949 138.372,9.186 136.79,9.186 C135.208,9.186 134.863,10.949 134.863,12.227 C134.863,13.504 135.208,15.27 136.79,15.27 Z M136.79,8.759 C138.697,8.759 140.055,10.291 140.055,12.227 C140.055,14.164 138.697,15.695 136.79,15.695 C134.893,15.695 133.535,14.164 133.535,12.227 C133.535,10.291 134.893,8.759 136.79,8.759 L136.79,8.759 Z" id="Fill-28" fill="#FFFFFE"></path>
            <path d="M141.19,15.512 L141.19,8.942 L144.029,8.942 C145.225,8.942 145.895,9.824 145.895,10.878 C145.895,11.882 145.165,12.319 144.181,12.44 L145.925,15.512 L144.566,15.512 L142.772,12.145 L142.852,12.145 C143.948,12.145 144.658,11.72 144.658,10.736 C144.658,10.006 144.302,9.267 143.095,9.267 L142.426,9.267 L142.426,15.512 L141.19,15.512" id="Fill-29" fill="#FFFFFE"></path>
            <polyline id="Fill-30" fill="#FFFFFE" points="147.072 15.512 147.072 8.942 148.177 8.942 151.615 13.464 151.635 13.464 151.635 8.942 152.163 8.942 152.163 15.512 151.615 15.512 147.62 10.27 147.599 10.27 147.599 15.512 147.072 15.512"></polyline>
            <polygon id="Fill-31" fill="#FFFFFE" points="153.898 15.512 155.134 15.512 155.134 8.942 153.898 8.942"></polygon>
            <path d="M158.572,10.959 L157.619,13.373 L159.536,13.373 L158.572,10.959 Z M161.674,15.512 L160.408,15.512 L159.707,13.798 L157.447,13.798 L156.787,15.512 L156.209,15.512 L158.886,8.759 L158.906,8.759 L161.674,15.512 L161.674,15.512 Z" id="Fill-32" fill="#FFFFFE"></path>
        </g>
    </g>
</svg>